#N canvas 81 50 1722 875 10;
#X obj 1121 -606 cnv 15 308 312 empty empty OSC\ receiver 20 12 0 14
-237047 -66577 0;
#X obj 605 -293 cnv 15 515 276 empty empty Noise\ burst 20 11 0 14
-245563 -66577 0;
#X obj 605 -606 cnv 15 515 312 empty empty Bang\ logic 20 12 0 14 -241341
-66577 0;
#X obj 90 -293 cnv 15 514 276 empty empty Sustained\ note 20 12 0 14
-241339 -66577 0;
#X obj 90 -606 cnv 15 514 312 empty empty Bang\ logic 20 12 0 14 -241469
-66577 0;
#X obj 213 -568 hsl 128 15 0 1 0 0 empty empty empty -2 -8 0 10 -262144
-1 -1 6263 1;
#X obj 351 288 mtof;
#X obj 370 226 nbx 5 14 -1e+037 1e+037 0 1 empty empty empty 0 -8 0
10 -262144 -1 -1 64.4657 256 0;
#X obj 797 174 mtof;
#X obj 797 106 nbx 5 14 -1e+037 1e+037 0 1 empty empty empty 0 -8 0
10 -262144 -1 -1 76 256 0;
#X obj 426 485 +~ 1;
#X obj 426 459 osc~ 0.05;
#X obj 36 307 metro 5000;
#X obj 211 646 hsl 128 15 0 1 0 1 empty empty empty -2 -8 0 10 -262144
-1 -1 12000 1;
#X obj -36 564 random 2;
#X obj -74 564 lop~;
#X obj -74 590 lop~;
#X obj -74 616 hip~;
#X obj -74 642 hip~;
#X obj 127 642 hip~;
#X obj 127 616 hip~;
#X obj 127 590 lop~;
#X obj 127 564 lop~;
#X obj -36 590 sel 0 1;
#X obj -17 668 line;
#X obj 36 564 random 2;
#X obj 36 590 sel 0 1;
#X obj 55 668 line;
#X obj 364 356 autopan;
#X obj 775 227 autopan;
#X obj 36 344 random 2;
#X obj 36 370 sel 0 1;
#X obj 55 448 line;
#X msg 36 422 3000 5000;
#X msg 55 396 50 5000;
#X obj -74 486 catch~ \$0-l_fx;
#X obj 127 486 catch~ \$0-r_fx;
#X obj 364 382 throw~ \$0-l_fx;
#X obj 775 253 throw~ \$0-l_fx;
#X obj 403 408 throw~ \$0-r_fx;
#X obj 814 279 throw~ \$0-r_fx;
#X obj 127 724 freezeverb 300;
#X obj -74 724 freezeverb 299;
#X obj 351 640 osc~;
#X obj 351 562 vline~;
#X obj 351 510 * 4;
#X obj 351 588 +~;
#X obj 411 562 *~;
#X msg 351 536 \$1 2500;
#X obj 411 510 osc~ 1864;
#X obj 482 640 osc~;
#X obj 482 562 vline~;
#X obj 482 510 * 4;
#X obj 482 588 +~;
#X obj 426 536 *~ 2000;
#X obj 127 538 *~;
#X obj -74 538 *~;
#X msg 36 642 300 2500;
#X msg 55 616 1500 2500;
#X msg -17 616 1500 2500;
#X msg -36 642 300 2500;
#X obj 364 329 vcf~ 300;
#X obj 775 200 vcf~ 400;
#X obj 83 724 *~ 24;
#X obj 39 724 *~ 24;
#X obj 127 668 *~ 3;
#X obj -74 668 *~ 3;
#X obj 351 614 +~;
#X obj 482 614 +~;
#X obj 411 614 *~ 30;
#X msg 482 536 \$1 2000;
#X obj 351 666 *~ 8e-006;
#X obj 482 666 *~ 8e-006;
#X obj -74 780 master;
#X msg 61 273 stop;
#X obj 61 242 bng 15 250 50 0 empty empty empty 17 7 0 10 -258049 -1
-1;
#X obj 36 242 bng 15 250 50 0 empty empty empty 17 7 0 10 -4033 -1
-1;
#X obj 370 253 +;
#X obj 823 138 +;
#X obj 1169 -481 import mrpeach;
#X obj 1169 -453 udpreceive 9001;
#X obj 1169 -425 unpackOSC;
#X obj 142 511 / 500;
#X obj 142 459 min 500;
#X obj 239 -129 *~;
#X obj 239 -160 vline~;
#X msg 239 -187 1 1000 \, 0 5000 1000;
#X obj 239 -100 *~ 1;
#X obj 679 -149 noise~;
#X obj 775 -100 *~;
#X obj 813 -160 vline~;
#X obj 755 -160 vline~;
#X obj 736 -132 vcf~ 44;
#X msg 754 -187 \$1 \, 0 5;
#X obj 775 -71 *~ 2;
#X floatatom 754 -212 5 0 0 0 - - -, f 5;
#X floatatom 813 -212 5 0 0 0 - - -, f 5;
#X obj 411 591 osc~ 4;
#X obj -153 725 r~ wind;
#X obj 125 -257 noise~;
#X obj 125 -227 bp~ 8.064 0.08;
#X obj 125 -146 vcf~ 0;
#X obj 239 -251 t b b;
#X obj 385 34 random 20;
#X obj 239 -71 s~ sustained;
#X obj 259 312 r~ sustained;
#X obj 141 -187 sig~ 948;
#X msg 813 -187 \$1 \, 0 5;
#X obj 797 61 + 60;
#X obj 797 36 random 20;
#X obj 755 -270 t b b;
#X obj 729 -567 hsl 128 15 0 1 0 0 empty empty empty -2 -8 0 10 -262144
-1 -1 4077 1;
#X floatatom 729 -536 5 0 0 0 - - -, f 5;
#X floatatom 728 -456 5 0 0 0 - - -, f 5;
#X obj 728 -484 >= 0.8;
#X obj 728 -405 spigot;
#X obj 789 -484 <= 0.6;
#X obj 728 -506 gate 2;
#X msg 728 -356 2;
#X msg 789 -405 1;
#X obj 789 -431 spigot;
#X obj 728 -431 t b f;
#X obj 728 -381 t b b;
#X obj 789 -458 t b f;
#X obj 843 -422 loadbang;
#X obj 674 -536 r g1;
#X obj 789 -379 s g1;
#X obj 728 -332 s g1;
#X floatatom 213 -537 5 0 0 0 - - -, f 5;
#X floatatom 212 -457 5 0 0 0 - - -, f 5;
#X obj 212 -406 spigot;
#X obj 212 -507 gate 2;
#X msg 212 -357 2;
#X msg 273 -406 1;
#X obj 273 -432 spigot;
#X obj 212 -432 t b f;
#X obj 212 -382 t b b;
#X obj 273 -459 t b f;
#X obj 327 -423 loadbang;
#X obj 212 -331 s g2;
#X obj 273 -380 s g2;
#X obj 158 -537 r g2;
#X floatatom 370 141 5 0 0 0 - - -, f 5;
#X floatatom 370 195 5 0 0 0 - - -, f 5;
#X obj 370 170 +;
#X obj 370 112 * 5;
#X obj 385 59 + 55;
#X obj 1232 -367 s BodyVol;
#X obj 370 84 r BodyVol;
#X obj 213 -600 r BodyVol;
#X obj 1169 -367 s Flow, f 9;
#X obj 1295 -367 s HandVol;
#X obj 729 -600 r HandVol;
#X obj 1169 -394 routeOSC /Flow /BodyVol /HandVol;
#X obj 212 -482 >= 0.8;
#X obj 273 -483 <= 0.75;
#X obj 1123 65 cnv 15 636 505 empty empty Wind\ generator 20 12 0 14
-262016 -66577 0;
#X obj 1242 233 noise~;
#X floatatom 1559 215 5 0 0 0 - - -, f 5;
#X obj 1559 187 random 2;
#X obj 1559 245 select 1;
#X obj 1559 301 i 1;
#X obj 1559 277 bng 15 250 50 0 empty empty empty 17 7 0 10 -262144
-1 -1;
#X obj 1604 301 i -1;
#X floatatom 1559 354 5 0 0 0 - - -, f 5;
#X obj 1559 158 del;
#X obj 1548 475 hsl 128 15 0.5 2 0 0 empty empty empty -2 -8 0 10 -262144
-1 -1 0 1;
#X obj 1545 415 +;
#X floatatom 1545 387 5 0 0 0 - - -, f 5;
#X floatatom 1545 445 5 0 0 0 - - -, f 5;
#X floatatom 1614 392 5 0 0 0 - - -, f 5;
#X obj 1459 268 bng 15 250 50 0 empty empty empty 17 7 0 10 -262144
-1 -1;
#X obj 1459 370 *;
#X obj 1459 325 / 100;
#X obj 1604 277 bng 15 250 50 0 empty empty empty 17 7 0 10 -262144
-1 -1;
#X obj 1604 325 spigot;
#X obj 1559 329 spigot;
#X obj 1459 217 bng 15 250 50 0 empty empty empty 17 7 0 10 -262144
-1 -1;
#X obj 1521 137 bng 15 250 50 0 empty empty empty 17 7 0 10 -262144
-1 -1;
#X obj 1459 240 metro 100;
#X obj 1699 456 < 2;
#X obj 1459 179 loadbang;
#X obj 1459 297 random 10;
#X obj 1704 417 > 0.5;
#X obj 1242 353 vcf~ 300;
#X obj 1185 280 sig~;
#X floatatom 1185 234 5 0 0 0 - - -, f 5;
#X floatatom 1287 305 5 0 0 0 - - -, f 5;
#X obj 1185 257 * 1000;
#X obj 1558 127 random 300;
#X obj 1242 401 *~ 0.2;
#X obj 1242 261 bp~ 8.064 0.07;
#X obj 1297 181 hsl 128 15 0 1 0 1 empty empty Wind\ volume -2 -8 0
10 -262144 -1 -1 3750 1;
#X obj 1254 444 s~ wind;
#X obj 1297 138 r Flow;
#X text 415 -551 This logic determines if the signal is above a threshold.
If true \, it sends a bang and routes the signal to the second gate.
The signal is then reset when the signal reaches another threshold.
, f 22;
#X text 415 -232 This part of the patch produces a sustained note.
It does so by ramping the signal using vline~. It then sends the sound
to the receiver., f 22;
#X text 934 -551 This logic determines if the signal is above a threshold.
If true \, it sends a bang and routes the signal to the second gate.
The signal is then reset when the signal reaches another threshold.
, f 22;
#X text 934 -230 Produces a short burst of noise whenever the condition
in the bang logic is met., f 22;
#X text 1213 -551 Receives OSC signal from Unity to control sounds
in the patch., f 22;
#X obj 239 -219 s randomize1;
#X obj 385 5 r randomize1;
#X obj 755 -241 s randomize2;
#X obj 797 9 r randomize2;
#X connect 5 0 128 0;
#X connect 6 0 45 0;
#X connect 6 0 61 1;
#X connect 7 0 77 0;
#X connect 8 0 52 0;
#X connect 8 0 62 1;
#X connect 9 0 78 0;
#X connect 10 0 54 0;
#X connect 11 0 10 0;
#X connect 12 0 14 0;
#X connect 12 0 25 0;
#X connect 12 0 30 0;
#X connect 13 0 41 1;
#X connect 13 0 42 1;
#X connect 14 0 23 0;
#X connect 15 0 16 0;
#X connect 16 0 17 0;
#X connect 17 0 18 0;
#X connect 18 0 66 0;
#X connect 19 0 65 0;
#X connect 20 0 19 0;
#X connect 21 0 20 0;
#X connect 22 0 21 0;
#X connect 23 0 60 0;
#X connect 23 1 59 0;
#X connect 24 0 15 1;
#X connect 24 0 16 1;
#X connect 24 0 17 1;
#X connect 24 0 18 1;
#X connect 25 0 26 0;
#X connect 26 0 57 0;
#X connect 26 1 58 0;
#X connect 27 0 22 1;
#X connect 27 0 21 1;
#X connect 27 0 20 1;
#X connect 27 0 19 1;
#X connect 28 0 37 0;
#X connect 28 1 39 0;
#X connect 29 0 38 0;
#X connect 29 1 40 0;
#X connect 30 0 31 0;
#X connect 31 0 33 0;
#X connect 31 1 34 0;
#X connect 32 0 83 0;
#X connect 33 0 32 0;
#X connect 34 0 32 0;
#X connect 35 0 56 0;
#X connect 36 0 55 0;
#X connect 41 0 73 1;
#X connect 41 1 73 1;
#X connect 42 0 73 0;
#X connect 42 1 73 0;
#X connect 43 0 71 0;
#X connect 44 0 46 0;
#X connect 45 0 48 0;
#X connect 46 0 67 0;
#X connect 47 0 46 1;
#X connect 47 0 53 1;
#X connect 48 0 44 0;
#X connect 49 0 47 0;
#X connect 50 0 72 0;
#X connect 51 0 53 0;
#X connect 52 0 70 0;
#X connect 53 0 68 0;
#X connect 54 0 47 1;
#X connect 55 0 22 0;
#X connect 55 0 63 0;
#X connect 56 0 15 0;
#X connect 56 0 64 0;
#X connect 57 0 27 0;
#X connect 58 0 27 0;
#X connect 59 0 24 0;
#X connect 60 0 24 0;
#X connect 61 0 28 0;
#X connect 62 0 29 0;
#X connect 63 0 73 1;
#X connect 64 0 73 0;
#X connect 65 0 41 0;
#X connect 66 0 42 0;
#X connect 67 0 43 0;
#X connect 68 0 50 0;
#X connect 69 0 67 1;
#X connect 69 0 68 1;
#X connect 70 0 51 0;
#X connect 71 0 42 0;
#X connect 72 0 41 0;
#X connect 74 0 12 0;
#X connect 75 0 74 0;
#X connect 76 0 12 0;
#X connect 77 0 6 0;
#X connect 78 0 8 0;
#X connect 80 0 81 0;
#X connect 81 0 153 0;
#X connect 82 0 55 1;
#X connect 82 0 56 1;
#X connect 83 0 82 0;
#X connect 84 0 87 0;
#X connect 85 0 84 1;
#X connect 86 0 85 0;
#X connect 87 0 104 0;
#X connect 88 0 92 0;
#X connect 89 0 94 0;
#X connect 90 0 89 1;
#X connect 91 0 92 1;
#X connect 92 1 89 0;
#X connect 93 0 91 0;
#X connect 94 0 62 0;
#X connect 95 0 93 0;
#X connect 96 0 107 0;
#X connect 97 0 69 0;
#X connect 98 0 73 0;
#X connect 98 0 73 1;
#X connect 99 0 100 0;
#X connect 100 0 101 0;
#X connect 101 0 84 0;
#X connect 102 0 200 0;
#X connect 102 1 86 0;
#X connect 103 0 146 0;
#X connect 105 0 61 0;
#X connect 106 0 101 1;
#X connect 107 0 90 0;
#X connect 108 0 9 0;
#X connect 109 0 108 0;
#X connect 110 0 202 0;
#X connect 110 1 96 0;
#X connect 110 1 95 0;
#X connect 111 0 112 0;
#X connect 112 0 117 1;
#X connect 113 0 121 0;
#X connect 114 0 113 0;
#X connect 115 0 122 0;
#X connect 116 0 123 0;
#X connect 117 0 114 0;
#X connect 117 1 116 0;
#X connect 118 0 127 0;
#X connect 119 0 126 0;
#X connect 120 0 119 0;
#X connect 121 0 115 0;
#X connect 121 1 115 1;
#X connect 122 0 118 0;
#X connect 122 1 110 0;
#X connect 123 0 120 0;
#X connect 123 1 120 1;
#X connect 124 0 119 0;
#X connect 125 0 117 0;
#X connect 128 0 131 1;
#X connect 129 0 135 0;
#X connect 130 0 136 0;
#X connect 131 0 154 0;
#X connect 131 1 155 0;
#X connect 132 0 139 0;
#X connect 133 0 140 0;
#X connect 134 0 133 0;
#X connect 135 0 130 0;
#X connect 135 1 130 1;
#X connect 136 0 132 0;
#X connect 136 1 102 0;
#X connect 137 0 134 0;
#X connect 137 1 134 1;
#X connect 138 0 133 0;
#X connect 141 0 131 0;
#X connect 142 0 144 0;
#X connect 143 0 7 0;
#X connect 144 0 143 0;
#X connect 145 0 142 0;
#X connect 146 0 144 1;
#X connect 148 0 145 0;
#X connect 149 0 5 0;
#X connect 152 0 111 0;
#X connect 153 0 150 0;
#X connect 153 1 147 0;
#X connect 153 2 151 0;
#X connect 154 0 129 0;
#X connect 155 0 137 0;
#X connect 157 0 191 0;
#X connect 158 0 160 0;
#X connect 159 0 158 0;
#X connect 160 0 162 0;
#X connect 160 1 174 0;
#X connect 161 0 176 0;
#X connect 162 0 161 0;
#X connect 163 0 175 0;
#X connect 164 0 172 1;
#X connect 165 0 159 0;
#X connect 165 0 178 0;
#X connect 166 0 187 0;
#X connect 166 0 186 0;
#X connect 167 0 169 0;
#X connect 168 0 167 0;
#X connect 169 0 170 0;
#X connect 169 0 166 0;
#X connect 169 0 180 0;
#X connect 169 0 183 0;
#X connect 170 0 167 1;
#X connect 171 0 182 0;
#X connect 172 0 168 0;
#X connect 173 0 172 0;
#X connect 174 0 163 0;
#X connect 175 0 164 0;
#X connect 176 0 164 0;
#X connect 177 0 179 0;
#X connect 178 0 189 0;
#X connect 179 0 171 0;
#X connect 180 0 176 1;
#X connect 181 0 178 0;
#X connect 181 0 177 0;
#X connect 182 0 173 0;
#X connect 183 0 175 1;
#X connect 184 0 190 0;
#X connect 185 0 184 1;
#X connect 186 0 188 0;
#X connect 187 0 184 2;
#X connect 188 0 185 0;
#X connect 189 0 165 0;
#X connect 190 0 193 0;
#X connect 191 0 184 0;
#X connect 192 0 190 1;
#X connect 194 0 192 0;
#X connect 201 0 103 0;
#X connect 203 0 109 0;
